<?xml version="1.0" encoding="UTF-8" standalone="no"?>
<!-- Created with Inkscape (http://www.inkscape.org/) -->

<svg
   id="svg5"
   version="1.1"
   viewBox="0 0 203.1503 203.1503"
   height="203.1503mm"
   width="203.1503mm"
   sodipodi:docname="logo-beta.svg"
   inkscape:version="1.1.1 (3bf5ae0d25, 2021-09-20, custom)"
   xmlns:inkscape="http://www.inkscape.org/namespaces/inkscape"
   xmlns:sodipodi="http://sodipodi.sourceforge.net/DTD/sodipodi-0.dtd"
   xmlns:xlink="http://www.w3.org/1999/xlink"
   xmlns="http://www.w3.org/2000/svg"
   xmlns:svg="http://www.w3.org/2000/svg">
  <sodipodi:namedview
     id="namedview7"
     pagecolor="#ffffff"
     bordercolor="#666666"
     borderopacity="1.0"
     inkscape:pageshadow="2"
     inkscape:pageopacity="0.0"
     inkscape:pagecheckerboard="0"
     inkscape:document-units="mm"
     showgrid="false"
     inkscape:snap-global="true"
     inkscape:snap-midpoints="true"
     inkscape:object-paths="false"
     inkscape:zoom="0.64"
     inkscape:cx="382.03125"
     inkscape:cy="418.75"
     inkscape:window-width="1600"
     inkscape:window-height="843"
     inkscape:window-x="0"
     inkscape:window-y="28"
     inkscape:window-maximized="1"
     inkscape:current-layer="layer1"
     inkscape:snap-smooth-nodes="false"
     inkscape:snap-object-midpoints="true"
     inkscape:snap-center="false"
     showguides="false"
     inkscape:guide-bbox="true"
     inkscape:snap-nodes="true"
     fit-margin-top="0"
     fit-margin-left="0"
     fit-margin-right="0"
     fit-margin-bottom="0"
     inkscape:snap-page="true"
     inkscape:object-nodes="true"
     inkscape:snap-intersection-paths="true">
    <sodipodi:guide
       position="22.011782,359.36145"
       orientation="0.52372705,0.85188613"
       id="guide8592" />
  </sodipodi:namedview>
  <defs
     id="defs2">
    <linearGradient
       inkscape:collect="always"
       id="linearGradient25168">
      <stop
         style="stop-color:#fefefe;stop-opacity:1"
         offset="0"
         id="stop25160" />
      <stop
         style="stop-color:#ffffff;stop-opacity:0.99607843"
         offset="0.20436507"
         id="stop25162" />
      <stop
         style="stop-color:#3698d0;stop-opacity:0.99607843"
         offset="0.6137113"
         id="stop25164" />
      <stop
         style="stop-color:#0e4c72;stop-opacity:1"
         offset="1"
         id="stop25166" />
    </linearGradient>
    <inkscape:path-effect
       effect="offset"
       id="path-effect24912"
       is_visible="true"
       lpeversion="1"
       linejoin_type="miter"
       unit="mm"
       offset="1.2"
       miter_limit="4"
       attempt_force_join="false"
       update_on_knot_move="true" />
    <inkscape:path-effect
       effect="offset"
       id="path-effect24906"
       is_visible="true"
       lpeversion="1"
       linejoin_type="miter"
       unit="mm"
       offset="4"
       miter_limit="4"
       attempt_force_join="false"
       update_on_knot_move="true" />
    <inkscape:path-effect
       effect="offset"
       id="path-effect24898"
       is_visible="true"
       lpeversion="1"
       linejoin_type="miter"
       unit="mm"
       offset="10.4"
       miter_limit="4"
       attempt_force_join="false"
       update_on_knot_move="true" />
    <inkscape:path-effect
       effect="offset"
       id="path-effect24892"
       is_visible="true"
       lpeversion="1"
       linejoin_type="miter"
       unit="mm"
       offset="15.9"
       miter_limit="4"
       attempt_force_join="false"
       update_on_knot_move="true" />
    <inkscape:path-effect
       effect="offset"
       id="path-effect24507"
       is_visible="true"
       lpeversion="1"
       linejoin_type="miter"
       unit="mm"
       offset="1.2"
       miter_limit="4"
       attempt_force_join="false"
       update_on_knot_move="true" />
    <inkscape:path-effect
       effect="offset"
       id="path-effect24483"
       is_visible="true"
       lpeversion="1"
       linejoin_type="miter"
       unit="mm"
       offset="4"
       miter_limit="4"
       attempt_force_join="false"
       update_on_knot_move="true" />
    <inkscape:path-effect
       effect="offset"
       id="path-effect24459"
       is_visible="true"
       lpeversion="1"
       linejoin_type="miter"
       unit="mm"
       offset="10.4"
       miter_limit="4"
       attempt_force_join="false"
       update_on_knot_move="true" />
    <linearGradient
       inkscape:collect="always"
       id="linearGradient19125">
      <stop
         style="stop-color:#fefefe;stop-opacity:1"
         offset="0"
         id="stop19117" />
      <stop
         style="stop-color:#ffffff;stop-opacity:0.99607843"
         offset="0.20436507"
         id="stop19119" />
      <stop
         style="stop-color:#ffb307;stop-opacity:0.99607843;"
         offset="0.6137113"
         id="stop19121" />
      <stop
         style="stop-color:#805900;stop-opacity:1"
         offset="1"
         id="stop19123" />
    </linearGradient>
    <inkscape:path-effect
       effect="offset"
       id="path-effect16819"
       is_visible="true"
       lpeversion="1"
       linejoin_type="miter"
       unit="mm"
       offset="15.9"
       miter_limit="4"
       attempt_force_join="false"
       update_on_knot_move="true" />
    <linearGradient
       inkscape:collect="always"
       id="linearGradient15100">
      <stop
         style="stop-color:#fefefe;stop-opacity:1"
         offset="0"
         id="stop15092" />
      <stop
         style="stop-color:#ffffff;stop-opacity:0.99607843"
         offset="0.22080714"
         id="stop15094" />
      <stop
         style="stop-color:#ffb307;stop-opacity:0.99607843;"
         offset="0.66308701"
         id="stop15096" />
      <stop
         style="stop-color:#805900;stop-opacity:1"
         offset="1"
         id="stop15098" />
    </linearGradient>
    <linearGradient
       inkscape:collect="always"
       id="linearGradient8871">
      <stop
         style="stop-color:#fefefe;stop-opacity:1"
         offset="0"
         id="stop8865" />
      <stop
         style="stop-color:#ffffff;stop-opacity:0.99607843"
         offset="0.33260754"
         id="stop8867" />
      <stop
         style="stop-color:#ffb307;stop-opacity:1"
         offset="1"
         id="stop8869" />
    </linearGradient>
    <inkscape:path-effect
       effect="simplify"
       id="path-effect1708"
       is_visible="true"
       lpeversion="1"
       steps="2"
       threshold="0.0057"
       smooth_angles="0"
       helper_size="5"
       simplify_individual_paths="false"
       simplify_just_coalesce="false" />
    <inkscape:path-effect
       effect="offset"
       id="path-effect1526"
       is_visible="true"
       lpeversion="1"
       linejoin_type="miter"
       unit="mm"
       offset="3.3"
       miter_limit="4"
       attempt_force_join="false"
       update_on_knot_move="true" />
    <inkscape:path-effect
       effect="offset"
       id="path-effect1265"
       is_visible="true"
       lpeversion="1"
       linejoin_type="miter"
       unit="mm"
       offset="3.3"
       miter_limit="4"
       attempt_force_join="false"
       update_on_knot_move="true" />
    <inkscape:path-effect
       effect="offset"
       id="path-effect130765"
       is_visible="true"
       lpeversion="1"
       linejoin_type="miter"
       unit="mm"
       offset="3.3"
       miter_limit="4"
       attempt_force_join="false"
       update_on_knot_move="true" />
    <inkscape:path-effect
       effect="offset"
       id="path-effect130217"
       is_visible="true"
       lpeversion="1"
       linejoin_type="miter"
       unit="mm"
       offset="3.3"
       miter_limit="4"
       attempt_force_join="false"
       update_on_knot_move="true" />
    <inkscape:path-effect
       effect="offset"
       id="path-effect130117"
       is_visible="true"
       lpeversion="1"
       linejoin_type="miter"
       unit="mm"
       offset="3.3"
       miter_limit="4"
       attempt_force_join="false"
       update_on_knot_move="true" />
    <inkscape:path-effect
       effect="offset"
       id="path-effect129993"
       is_visible="true"
       lpeversion="1"
       linejoin_type="miter"
       unit="mm"
       offset="3.3"
       miter_limit="4"
       attempt_force_join="false"
       update_on_knot_move="true" />
    <inkscape:path-effect
       effect="skeletal"
       id="path-effect28702"
       is_visible="true"
       lpeversion="1"
       pattern="M 0,4.9921382 C 0,2.2364779 2.2364779,0 4.9921382,0 c 2.7556604,0 4.9921383,2.2364779 4.9921383,4.9921382 0,2.7556604 -2.2364779,4.9921383 -4.9921383,4.9921383 C 2.2364779,9.9842765 0,7.7477986 0,4.9921382 Z"
       copytype="single_stretched"
       prop_scale="0.15"
       scale_y_rel="false"
       spacing="0"
       normal_offset="0"
       tang_offset="0"
       prop_units="false"
       vertical_pattern="false"
       hide_knot="false"
       fuse_tolerance="0" />
    <linearGradient
       inkscape:collect="always"
       id="linearGradient1156">
      <stop
         style="stop-color:#000000;stop-opacity:0.01006936"
         offset="0"
         id="stop1152" />
      <stop
         style="stop-color:#000000;stop-opacity:0.61836153"
         offset="0.39606667"
         id="stop1388" />
      <stop
         style="stop-color:#000000;stop-opacity:1"
         offset="1"
         id="stop1154" />
    </linearGradient>
    <radialGradient
       inkscape:collect="always"
       xlink:href="#linearGradient1156"
       id="radialGradient1288-3"
       cx="368.5625"
       cy="465.37695"
       fx="368.5625"
       fy="465.37695"
       r="59.570309"
       gradientTransform="matrix(0.36532143,0.1220609,-0.1220609,0.36532143,20.107527,-94.521206)"
       gradientUnits="userSpaceOnUse" />
    <radialGradient
       inkscape:collect="always"
       xlink:href="#linearGradient8871"
       id="radialGradient5225-3"
       gradientUnits="userSpaceOnUse"
       gradientTransform="matrix(2.0398076,0,0,2.0398081,-469.66938,157.44544)"
       cx="918.8197"
       cy="182.40836"
       fx="918.8197"
       fy="182.40836"
       r="27.379515" />
    <radialGradient
       inkscape:collect="always"
       xlink:href="#linearGradient8871"
       id="radialGradient5225-5"
       gradientUnits="userSpaceOnUse"
       gradientTransform="matrix(2.0398076,0,0,2.0398081,-469.66938,157.44544)"
       cx="918.8197"
       cy="182.40836"
       fx="918.8197"
       fy="182.40836"
       r="27.379515" />
    <radialGradient
       inkscape:collect="always"
       xlink:href="#linearGradient15100"
       id="radialGradient14962-2"
       gradientUnits="userSpaceOnUse"
       gradientTransform="matrix(3.0728253,0,0,3.0728264,-1418.8264,-30.985716)"
       cx="918.8197"
       cy="182.40836"
       fx="918.8197"
       fy="182.40836"
       r="27.379515" />
    <radialGradient
       inkscape:collect="always"
       xlink:href="#linearGradient19125"
       id="radialGradient18293-0"
       gradientUnits="userSpaceOnUse"
       gradientTransform="matrix(3.3200468,0,0,3.3200482,-1645.9784,-76.08104)"
       cx="918.8197"
       cy="182.40836"
       fx="918.8197"
       fy="182.40836"
       r="27.379515" />
    <radialGradient
       inkscape:collect="always"
       xlink:href="#linearGradient25168"
       id="radialGradient24920"
       gradientUnits="userSpaceOnUse"
       gradientTransform="matrix(2.8506447,0,0,2.8506459,-1214.6825,235.65779)"
       cx="918.8197"
       cy="182.40836"
       fx="918.8197"
       fy="182.40836"
       r="27.379515" />
    <linearGradient
       inkscape:collect="always"
       xlink:href="#linearGradient1204"
       id="linearGradient1206"
       x1="0.91253406"
       y1="18.963993"
       x2="9.0544424"
       y2="18.878592"
       gradientUnits="userSpaceOnUse"
       gradientTransform="matrix(9.4889048,0,0,9.3737559,1302.8536,651.3679)" />
    <linearGradient
       inkscape:collect="always"
       id="linearGradient1204">
      <stop
         style="stop-color:#21782c;stop-opacity:1"
         offset="0"
         id="stop1200" />
      <stop
         style="stop-color:#37c83a;stop-opacity:1"
         offset="1"
         id="stop1202" />
    </linearGradient>
  </defs>
  <g
     inkscape:label="Layer 1"
     inkscape:groupmode="layer"
     id="layer1"
     transform="translate(-1302.9705,-671.30078)">
    <g
       id="g881"
       transform="translate(0,17.240298)">
      <path
         id="path24888"
         style="font-variation-settings:normal;opacity:1;fill:#ffffff;fill-opacity:1;stroke:none;stroke-width:4.99999;stroke-linecap:butt;stroke-linejoin:round;stroke-miterlimit:4;stroke-dasharray:none;stroke-dashoffset:0;stroke-opacity:1;stop-color:#000000;stop-opacity:1"
         d="m 1404.5664,671.30078 c 0.025,4e-5 0.049,0.004 0.074,0.004 0.02,1.7e-4 0.039,-0.002 0.059,-0.002 z m 0.074,0.004 c -8.9265,-0.0795 -17.231,1.61316 -24.3965,3.43164 -20.6024,4.92408 -41.206,9.84737 -61.8086,14.77148 l -15.4648,3.69727 3.6953,15.46289 c 5.3032,22.18782 10.6072,44.37512 15.9102,66.5625 l 0.01,0.0215 v 0.0215 c 2.6312,10.87541 7.5033,21.54302 14.377,30.72656 13.7163,18.5579 35.5572,31.10174 58.5605,33.48828 9.6027,1.07093 19.5343,0.30918 28.5586,-1.80469 l 0.035,-0.008 0.033,-0.008 c 22.1688,-5.29859 44.3373,-10.59798 66.5058,-15.89649 l 15.4649,-3.69726 -3.6953,-15.46289 c -5.3032,-22.18764 -10.6072,-44.37525 -15.9102,-66.5625 l -0.5371,-2.24219 -1.1504,-1.99805 c 0,0 1.079,1.03124 -0.8164,-3.66797 -7.335,-21.51932 -23.9157,-39.82092 -44.5859,-49.20312 -10.8793,-4.99167 -22.8324,-7.60512 -34.7852,-7.63281 z m 34.7852,7.63281 c 0.014,0.006 0.029,0.0111 0.043,0.0176 l -0.074,-0.0332 c 0.011,0.005 0.021,0.0108 0.031,0.0156 z m 44.5859,49.20312 c 0.094,0.27524 0.2257,0.53622 0.3164,0.8125 l -0.4179,-1.125 c 0.087,0.21044 0.025,0.12228 0.1015,0.3125 z m -88.4883,111.34766 c -0.03,-0.003 -0.061,-0.002 -0.092,-0.006 l 0.1524,0.0156 c -0.02,-0.002 -0.04,-0.008 -0.061,-0.01 z M 1336.9629,806 c -0.014,-0.0182 -0.03,-0.0345 -0.043,-0.0527 l 0.072,0.0957 c -0.01,-0.0139 -0.019,-0.0291 -0.029,-0.043 z"
         inkscape:path-effect="#path-effect24892"
         inkscape:original-d="m 1404.5434,687.20213 c -6.9568,-0.0681 -13.7413,1.25904 -20.3876,2.94579 -20.6748,4.94138 -41.3496,9.88279 -62.0245,14.82418 5.3031,22.18761 10.6061,44.37525 15.9091,66.56287 2.1543,8.90434 6.1291,17.57526 11.674,24.97338 11.1573,15.12282 28.7954,25.24871 47.4978,27.17425 7.737,0.87243 15.7596,0.2723 23.2423,-1.48045 22.1686,-5.29855 44.3373,-10.59712 66.506,-15.89567 -5.3031,-22.18745 -10.6061,-44.37488 -15.9091,-66.56234 -0.6481,-1.12522 -1.0971,-4.06318 -1.8285,-5.82755 -5.8378,-17.76918 -19.3638,-32.79368 -36.393,-40.51414 -8.8409,-4.06244 -18.5577,-6.18651 -28.2865,-6.20032 z"
         sodipodi:nodetypes="cccccccccccc" />
      <path
         id="path24894"
         style="font-variation-settings:normal;opacity:1;fill:#000000;fill-opacity:1;stroke:none;stroke-width:4.99999;stroke-linecap:butt;stroke-linejoin:round;stroke-miterlimit:4;stroke-dasharray:none;stroke-dashoffset:0;stroke-opacity:1;stop-color:#000000;stop-opacity:1"
         d="m 1404.5586,676.80078 c 0.012,2e-5 0.023,0.002 0.035,0.002 0.017,1.6e-4 0.034,-0.002 0.051,-0.002 z m 0.035,0.002 c -8.2409,-0.0738 -16.0144,1.49376 -22.9961,3.26563 l 0.1406,-0.0352 c -20.6748,4.94138 -41.3505,9.88283 -62.0254,14.82422 l -10.1152,2.41797 2.4179,10.11523 c 5.3032,22.18776 10.6072,44.37504 15.9102,66.5625 v 0.0137 0.0137 c 2.465,10.18869 7.0224,20.16134 13.4316,28.72461 12.8276,17.37175 33.2139,29.08302 54.7286,31.31445 8.9614,1.00443 18.2373,0.29848 26.7324,-1.69141 l 0.023,-0.004 0.023,-0.006 c 22.1688,-5.29857 44.3373,-10.59797 66.5059,-15.89648 l 10.1152,-2.41797 -2.4179,-10.11524 c -5.3032,-22.18757 -10.6072,-44.37518 -15.9102,-66.5625 l -0.3515,-1.46679 -0.752,-1.30665 c 0,0 0.3925,-0.56771 -1.1621,-4.40429 -6.8124,-20.21639 -22.3272,-37.38287 -41.7285,-46.19532 l -0.01,-0.004 c -10.1836,-4.678 -21.3752,-7.1255 -32.5703,-7.14649 z m 74.3066,53.34571 c 0.06,0.17691 0.1448,0.34411 0.2031,0.52148 l -0.2734,-0.73633 c 0.048,0.11532 0.026,0.10515 0.07,0.21485 z m -82.8066,103.87109 c -0.016,-0.002 -0.031,-0.002 -0.047,-0.004 l 0.1015,0.0117 c -0.018,-0.002 -0.036,-0.006 -0.055,-0.008 z m -54.7286,-31.31445 c -0.01,-0.008 -0.014,-0.0152 -0.019,-0.0234 l 0.047,0.0644 c -0.01,-0.0131 -0.017,-0.0278 -0.027,-0.041 z"
         inkscape:path-effect="#path-effect24898"
         inkscape:original-d="m 1404.5434,687.20213 c -6.9568,-0.0681 -13.7413,1.25904 -20.3876,2.94579 -20.6748,4.94138 -41.3496,9.88279 -62.0245,14.82418 5.3031,22.18761 10.6061,44.37525 15.9091,66.56287 2.1543,8.90434 6.1291,17.57526 11.674,24.97338 11.1573,15.12282 28.7954,25.24871 47.4978,27.17425 7.737,0.87243 15.7596,0.2723 23.2423,-1.48045 22.1686,-5.29855 44.3373,-10.59712 66.506,-15.89567 -5.3031,-22.18745 -10.6061,-44.37488 -15.9091,-66.56234 -0.6481,-1.12522 -1.0971,-4.06318 -1.8285,-5.82755 -5.8378,-17.76918 -19.3638,-32.79368 -36.393,-40.51414 -8.8409,-4.06244 -18.5577,-6.18651 -28.2865,-6.20032 z"
         sodipodi:nodetypes="cccccccccccc" />
      <path
         id="path24902"
         style="font-variation-settings:normal;display:inline;opacity:1;fill:#ffffff;fill-opacity:1;stroke:none;stroke-width:4.99999;stroke-linecap:butt;stroke-linejoin:round;stroke-miterlimit:4;stroke-dasharray:none;stroke-dashoffset:0;stroke-opacity:1;stop-color:#000000;stop-opacity:1"
         d="m 1404.5488,683.20117 c 0.01,10e-6 0.013,0.002 0.02,0.002 0,5e-5 0.01,-0.002 0.014,-0.002 z m 0.02,0.002 c -7.4531,-0.0711 -14.6198,1.34854 -21.3965,3.06836 -20.6565,4.93702 -41.3141,9.87353 -61.9707,14.81055 l -3.8907,0.92969 0.9297,3.89062 c 5.3031,22.18767 10.6072,44.37494 15.9102,66.5625 v 0.006 0.006 c 2.2742,9.39985 6.4747,18.57081 12.3536,26.41797 0,0.004 0,0.008 0.01,0.0117 11.8013,15.98145 30.4932,26.7108 50.2734,28.75195 8.2069,0.92264 16.7092,0.28314 24.5801,-1.56054 l 0.01,-0.002 0.01,-0.002 c 22.1686,-5.29855 44.3372,-10.59795 66.5058,-15.89648 l 3.8906,-0.92969 -0.9296,-3.89063 c -5.3031,-22.18749 -10.6072,-44.37509 -15.9102,-66.5625 l -0.1348,-0.56445 -0.289,-0.50195 c -0.095,-0.1645 -0.6782,-3.0953 -1.584,-5.31055 -6.2182,-18.69702 -20.5015,-34.53404 -38.4336,-42.66992 l -0.01,-0.004 c -9.3537,-4.29639 -19.6335,-6.5431 -29.9218,-6.56055 z m 68.3652,49.23438 c 0.026,0.0783 0.064,0.15204 0.09,0.23047 l -0.1054,-0.2832 c 0.01,0.0218 0.01,0.0307 0.016,0.0527 z"
         inkscape:path-effect="#path-effect24906"
         inkscape:original-d="m 1404.5434,687.20213 c -6.9568,-0.0681 -13.7413,1.25904 -20.3876,2.94579 -20.6748,4.94138 -41.3496,9.88279 -62.0245,14.82418 5.3031,22.18761 10.6061,44.37525 15.9091,66.56287 2.1543,8.90434 6.1291,17.57526 11.674,24.97338 11.1573,15.12282 28.7954,25.24871 47.4978,27.17425 7.737,0.87243 15.7596,0.2723 23.2423,-1.48045 22.1686,-5.29855 44.3373,-10.59712 66.506,-15.89567 -5.3031,-22.18745 -10.6061,-44.37488 -15.9091,-66.56234 -0.6481,-1.12522 -1.0971,-4.06318 -1.8285,-5.82755 -5.8378,-17.76918 -19.3638,-32.79368 -36.393,-40.51414 -8.8409,-4.06244 -18.5577,-6.18651 -28.2865,-6.20032 z"
         sodipodi:nodetypes="cccccccccccc" />
      <path
         id="path24908"
         style="font-variation-settings:normal;opacity:1;fill:#000000;fill-opacity:1;stroke:none;stroke-width:4.99999;stroke-linecap:butt;stroke-linejoin:round;stroke-miterlimit:4;stroke-dasharray:none;stroke-dashoffset:0;stroke-opacity:1;stop-color:#000000;stop-opacity:1"
         d="m 1404.5449,686.00195 c -7.0982,-0.0682 -13.9891,1.28414 -20.6679,2.97852 l -0.016,0.004 c -20.6695,4.94013 -41.3401,9.88016 -62.0097,14.82031 l -1.1661,0.27929 0.2774,1.16797 c 5.3031,22.18763 10.6083,44.37362 15.9121,66.56446 2.1906,9.05434 6.234,17.87798 11.875,25.40429 11.3512,15.38558 29.3094,25.69499 48.3398,27.6543 7.8764,0.88664 16.0418,0.27698 23.6446,-1.50391 22.1686,-5.29854 44.3371,-10.59793 66.5058,-15.89648 l 1.166,-0.2793 -0.2773,-1.16797 c -5.3031,-22.18746 -10.6072,-44.37505 -15.9101,-66.5625 l -0.041,-0.16796 -0.088,-0.15235 c -0.4808,-0.83488 -0.9678,-3.76747 -1.7519,-5.66992 -5.952,-18.05058 -19.7079,-33.31984 -37.0059,-41.16211 -8.9943,-4.13295 -18.8809,-6.29509 -28.7773,-6.31055 z"
         inkscape:path-effect="#path-effect24912"
         inkscape:original-d="m 1404.5434,687.20213 c -6.9568,-0.0681 -13.7413,1.25904 -20.3876,2.94579 -20.6748,4.94138 -41.3496,9.88279 -62.0245,14.82418 5.3031,22.18761 10.6061,44.37525 15.9091,66.56287 2.1543,8.90434 6.1291,17.57526 11.674,24.97338 11.1573,15.12282 28.7954,25.24871 47.4978,27.17425 7.737,0.87243 15.7596,0.2723 23.2423,-1.48045 22.1686,-5.29855 44.3373,-10.59712 66.506,-15.89567 -5.3031,-22.18745 -10.6061,-44.37488 -15.9091,-66.56234 -0.6481,-1.12522 -1.0971,-4.06318 -1.8285,-5.82755 -5.8378,-17.76918 -19.3638,-32.79368 -36.393,-40.51414 -8.8409,-4.06244 -18.5577,-6.18651 -28.2865,-6.20032 z"
         sodipodi:nodetypes="cccccccccccc" />
      <path
         style="font-variation-settings:normal;opacity:1;fill:url(#radialGradient24920);fill-opacity:1;stroke:#1c4a66;stroke-width:6;stroke-linecap:butt;stroke-linejoin:round;stroke-miterlimit:4;stroke-dasharray:none;stroke-dashoffset:0;stroke-opacity:1;stop-color:#000000;stop-opacity:1"
         d="m 1418.4563,698.56388 c 31.5228,7.6817 50.849,39.46396 43.1657,70.98633 -7.6816,31.5228 -39.4639,50.84916 -70.9863,43.16581 -31.5229,-7.68169 -50.8492,-39.46397 -43.1658,-70.98634 7.6816,-31.52281 39.4639,-50.84918 70.9864,-43.1658 z"
         id="path24914"
         sodipodi:nodetypes="ccccc" />
      <path
         id="path24916"
         style="opacity:1;fill-opacity:0.99702;stroke-width:7.2;stroke-linejoin:round;stop-color:#000000;stop-opacity:1"
         d="m 1431.9749,755.63941 a 27.428835,27.428835 0 0 1 -27.4289,27.42884 27.428835,27.428835 0 0 1 -27.4288,-27.42884 27.428835,27.428835 0 0 1 27.4288,-27.42883 27.428835,27.428835 0 0 1 27.4289,27.42883 z" />
      <path
         id="path24918"
         style="display:inline;opacity:1;fill:#ffffff;fill-opacity:0.995379;stroke-width:7.2;stroke-linejoin:round;stop-color:#000000;stop-opacity:1"
         d="m 1400.483,737.06355 c 2.4177,-0.77663 5.7303,4.61075 4.7354,5.96762 -3.1822,4.34033 -13.4731,12.95182 -15.0743,12.22724 -2.0544,-0.9297 -2.9248,-3.28748 -3.3693,-5.86613 -0.2849,-1.6526 7.2976,-10.26936 13.7082,-12.32873 z"
         sodipodi:nodetypes="sssss" />
    </g>
    <circle
       style="fill:url(#linearGradient1206);fill-opacity:1;stroke-width:10.8952"
       id="path856"
       cx="1349.1752"
       cy="828.94391"
       r="40" />
    <text
       xml:space="preserve"
       style="font-style:normal;font-weight:normal;font-size:47.0981px;line-height:1.25;font-family:sans-serif;fill:#ffffff;fill-opacity:1;stroke:none;stroke-width:1.17744"
       x="1325.3759"
       y="847.61908"
       id="text2638"
       transform="scale(1.0061233,0.99391396)"><tspan
         sodipodi:role="line"
         id="tspan2636"
         x="1325.3759"
         y="847.61908"
         style="fill:#ffffff;stroke-width:1.17744">β</tspan></text>
  </g>
</svg>
