<?xml version="1.0" encoding="UTF-8" standalone="no"?>
<svg
   enable-background="new 0 0 24 24"
   height="24px"
   viewBox="0 0 24 24"
   width="24px"
   fill="#000000"
   version="1.1"
   id="svg12"
   sodipodi:docname="verified_black_24dp.svg"
   inkscape:version="1.1.1 (3bf5ae0d25, 2021-09-20, custom)"
   xmlns:inkscape="http://www.inkscape.org/namespaces/inkscape"
   xmlns:sodipodi="http://sodipodi.sourceforge.net/DTD/sodipodi-0.dtd"
   xmlns="http://www.w3.org/2000/svg"
   xmlns:svg="http://www.w3.org/2000/svg">
  <defs
     id="defs16" />
  <sodipodi:namedview
     id="namedview14"
     pagecolor="#ffffff"
     bordercolor="#666666"
     borderopacity="1.0"
     inkscape:pageshadow="2"
     inkscape:pageopacity="0.0"
     inkscape:pagecheckerboard="0"
     showgrid="false"
     inkscape:zoom="26"
     inkscape:cx="11.980769"
     inkscape:cy="12"
     inkscape:window-width="1600"
     inkscape:window-height="843"
     inkscape:window-x="0"
     inkscape:window-y="28"
     inkscape:window-maximized="1"
     inkscape:current-layer="svg12" />
  <g
     id="g6">
    <rect
       fill="none"
       height="24"
       width="24"
       id="rect2" />
    <rect
       fill="none"
       height="24"
       width="24"
       id="rect4" />
  </g>
  <g
     id="g10"
     style="fill:#ff5599">
    <path
       d="M 23,12 20.56,9.21 20.9,5.52 17.29,4.7 15.4,1.5 12,2.96 8.6,1.5 6.71,4.69 3.1,5.5 3.44,9.2 1,12 3.44,14.79 3.1,18.49 6.71,19.31 8.6,22.5 12,21.03 15.4,22.49 17.29,19.3 20.9,18.48 20.56,14.79 Z M 9.38,16.01 7,13.61 C 6.61,13.22 6.61,12.59 7,12.2 l 0.07,-0.07 c 0.39,-0.39 1.03,-0.39 1.42,0 l 1.61,1.62 5.15,-5.16 c 0.39,-0.39 1.03,-0.39 1.42,0 l 0.07,0.07 c 0.39,0.39 0.39,1.02 0,1.41 l -5.92,5.94 c -0.41,0.39 -1.04,0.39 -1.44,0 z"
       id="path8"
       style="fill:#ff5599" />
  </g>
</svg>
